<svg xmlns:xlink="http://www.w3.org/1999/xlink" xmlns="http://www.w3.org/2000/svg" version="1.1" viewBox="0 0 350 60" height="60" width="350">
  <g transform="matrix(1.9760607369718157,0,0,1.9760607369718157,0,-20)" fill="#1a3e4d">
    <path d="M2.5586 12.051 l0 27.949 l5.1953 0 l12.383 -21.035 l0 21.035 l5.1953 0 l16.465 -27.949 l-4.9219 0 l-12.48 21.191 l0 -21.191 l-5.1172 0 l-12.48 21.191 l0 -21.191 l-4.2383 0 z M47.24611875 18.945 c-1.9531 1.9531 -2.9297 4.31 -2.9297 7.0703 s0.97656 5.1172 2.9297 7.0703 s4.31 2.9297 7.0703 2.9297 s5.1172 -0.97656 7.0703 -2.9297 s2.9297 -4.31 2.9297 -7.0703 s-0.97656 -5.1172 -2.9297 -7.0703 s-4.31 -2.9297 -7.0703 -2.9297 s-5.1172 0.97656 -7.0703 2.9297 z M44.23831875 36.0937 c-2.7865 -2.7865 -4.1797 -6.1459 -4.1797 -10.078 s1.3932 -7.2916 4.1797 -10.078 s6.1459 -4.1797 10.078 -4.1797 s7.2916 1.3932 10.078 4.1797 s4.1797 6.1459 4.1797 10.078 s-1.3932 7.2916 -4.1797 10.078 s-6.1459 4.1797 -10.078 4.1797 s-7.2916 -1.3932 -10.078 -4.1797 z M71.85551875 12.051 l0 27.949 l14.258 0 l0 -4.2383 l-10.02 0 l0 -23.711 l-4.2383 0 z M89.51176875 12.051 l0 27.949 l4.2383 0 l0 -11.895 l7.7344 0 l0 -4.2383 l-7.7344 0 l0 -7.5781 l10.02 0 l0 -4.2383 l-14.258 0 z"/>
  </g>
  <g transform="matrix(1,0,0,1,220,-18)">
    <g transform="matrix(1,0,0,1,0,0)" fill="#72a64f">
      <rect y="0" height="1" width="1" opacity="0"></rect>
      <rect y="73" width="120" height="5"></rect>
    </g>
    <g transform="matrix(1.3899707299952042,0,0,1.3899707299952042,-1.1303458997526878,4.230263107662255)" fill="#5c8920">
      <path d="M8.48 40.64 c-1.64 0 -3.84 -1.52 -3.84 -2.68 l0 -11.56 c0 -2.32 -0.68 -3 -3.48 -3 c-0.44 0 -0.44 -1.24 -0.12 -1.36 c3.04 -1.2 4.52 -2.28 6.68 -4.76 c0.52 -0.6 1.6 0 1.44 0.68 c-0.16 0.72 -0.24 1.32 -0.24 1.8 c0 1.44 0.64 1.88 1.6 1.88 c1.48 0 3.32 -0.4 4.76 -0.52 c0.4 -0.04 0.56 0.32 0.56 0.84 c0 1.04 -0.64 2.52 -1.28 2.48 l-1.56 -0.12 c-2.72 -0.2 -4.12 -0.16 -4.12 1.68 l0 9.44 c0 1.52 0.76 2.08 2.16 2.08 c1.24 0 3.44 -0.24 4.52 -0.36 c0.32 -0.04 0.68 1.16 0.28 1.32 c-2.2 0.88 -4.08 1.44 -7.36 2.16 z M22.53 40.64 c-2.76 0 -5.48 -1.64 -5.48 -4.88 c0 -2.16 1.28 -3.32 4.16 -4.24 l5.84 -1.88 c1.2 -0.4 1.56 -0.44 1.56 -1.44 l0 -1.6 c0 -2.48 -1.24 -2.76 -2.8 -2.76 c-2.12 0 -4.64 0.56 -6.12 0.72 c-0.36 0.04 -0.6 -0.16 -0.64 -0.44 l-0.08 -0.72 c-0.12 -1.04 5.96 -2.72 9 -2.72 c4.64 0 4.96 3.68 4.96 6.52 l0 8.44 c0 3.36 2.88 2 3.44 2.36 c0.2 0.12 0.28 0.4 0.28 0.56 c0 0.84 -3.4 2.08 -5.08 2.08 c-1.28 0 -2.08 -0.72 -3.04 -2.76 c-3.8 2.32 -4.64 2.76 -6 2.76 z M24.45 37.68 c2.04 0 4.2 -1.44 4.2 -3.48 l0 -3.12 c-0.24 0.16 -0.2 0.2 -0.96 0.44 l-4.04 1.36 c-1.28 0.44 -1.92 1.12 -1.92 2.32 c0 1.52 1.04 2.48 2.72 2.48 z M49.62 20.68 c4.12 0 8.04 2.8 8.04 8.68 c0 5.28 -3.24 11.28 -11 11.28 c-3.12 0 -5.76 -0.92 -8 -2.24 c0.2 -1.48 0.24 -3.04 0.24 -4.6 l0 -15.84 c0 -4.28 -0.6 -5.04 -3.4 -5.32 c-0.32 -0.04 -0.2 -1.08 0.08 -1.12 l7.76 -1.6 c0.36 -0.08 0.68 0.2 0.56 0.72 c-0.28 1.28 -0.72 3.68 -0.72 7.32 l0 3 c0 3.16 1.88 -0.28 6.44 -0.28 z M48.18 38.2 c3.52 0 5.08 -2.52 5.08 -6.68 c0 -5.16 -2.48 -8.32 -5.64 -8.32 c-2.4 0 -4.44 1.88 -4.44 3.24 l0 8 c0 2.36 2.4 3.76 5 3.76 z M59.15 40 c-0.32 0 -0.6 -1.16 -0.28 -1.2 c1.2 -0.16 2.72 -0.72 2.72 -3.04 l0 -17.6 c0 -4.4 -0.6 -5.24 -3.08 -5.52 c-0.32 -0.04 -0.2 -1.08 0.08 -1.12 l7.44 -1.6 c0.36 -0.08 0.68 0.2 0.56 0.72 c-0.28 1.28 -0.72 3.84 -0.72 9.12 l0 16 c0 2.32 1.52 2.88 2.76 3.04 c0.28 0.04 0.04 1.2 -0.28 1.2 l-9.2 0 z M86.16 36.92 c0.36 -0.08 0.68 1 0.44 1.12 c-1.56 0.76 -4.8 2.6 -5.56 2.6 c-4.92 0 -11.24 -2.32 -11.24 -9.4 c0 -4.76 2.92 -10.56 10.08 -10.56 c6.04 0 6.8 4.32 6.8 6 c0 1.04 -0.32 2.6 -0.72 3.52 l-11.88 0.32 c0.76 4.96 4.8 7.04 7.96 7.04 c0.36 0 2.08 -0.2 4.12 -0.64 z M78.48 23.24 c-3.16 0 -4.4 2.16 -4.52 5.2 l8.68 -0.28 c0.4 -2.16 -0.64 -4.92 -4.16 -4.92 z"></path>
    </g>
  </g>
</svg>